{"title":"Kung Fu Panda 2 TS (PSP, iPod, Zune)","uid":6434840,"size":315021575,"categoryP":"video","categoryS":"handheld","magnet":"?xt=urn:btih:3ebc711e1d07941c9be9e6347711e68bb0d93aba&amp;dn=Kung+Fu+Panda+2+TS+%28PSP%2C+iPod%2C+Zune%29&amp;tr=udp%3A%2F%2Ftracker.openbittorrent.com%3A80&amp;tr=udp%3A%2F%2Fopen.demonii.com%3A1337&amp;tr=udp%3A%2F%2Ftracker.coppersurfer.tk%3A6969&amp;tr=udp%3A%2F%2Fexodus.desync.com%3A6969","seeders":1,"leechers":1,"uploader":"holololo","files":2,"time":1306773732,"description":"Source:\n\n\n::File:: Kung.Fu.Panda.2.2011.TS.AC3.XViD-EP1C\n::Video Source:: That Russian Good Good\n::Audio Source:: Our Own Good Good\n\n::Encoder::::::: iNK\n::Syncer:::::::: iNK\n::Language:::::: English\n::IMDB:::::::::: http://www.imdb.com/title/tt1302011/\n\nPo joins forces with a group of new kung-fu masters to take on an old enemy with a deadly new weapon.\n::Specs:::::::::\n\nFormat                           : AVI\nFormat/Info                      : Audio Video Interleave\nFile size                        : 1.37 GiB\nDuration                         : 1h 20mn\nOverall bit rate                 : 2 421 Kbps\nWriting application              : VirtualDubMod 1.5.10.2 (build 2540/release)\nWriting library                  : VirtualDubMod build 2540/release\n\nVideo\nID                               : 0\nFormat                           : MPEG-4 Visual\nFormat profile                   : Advanced Simple@L5\nFormat settings, BVOP            : Yes\nFormat settings, QPel            : No\nFormat settings, GMC             : No warppoints\nFormat settings, Matrix          : Default (H.263)\nMuxing mode                      : Packed bitstream\nCodec ID                         : XVID\nCodec ID/Hint                    : XviD\nDuration                         : 1h 20mn\nBit rate                         : 2 220 Kbps\nWidth                            : 672 pixels\nHeight                           : 352 pixels\nDisplay aspect ratio             : 1.909\nFrame rate                       : 25.000 fps\nColor space                      : YUV\nChroma subsampling               : 4:2:0\nBit depth                        : 8 bits\nScan type                        : Progressive\nBits/(Pixel*Frame)               : 0.375\nStream size                      : 1.26 GiB (92%)\nWriting library                  : XviD 58\n\nAudio\nID                               : 1\nFormat                           : AC-3\nFormat/Info                      : Audio Coding 3\nMode extension                   : CM (complete main)\nCodec ID                         : 2000\nDuration                         : 1h 20mn\nBit rate mode                    : Constant\nBit rate                         : 192 Kbps\nChannel(s)                       : 2 channels\nChannel positions                : Front: L R\nSampling rate                    : 48.0 KHz\nBit depth                        : 16 bits\nStream size                      : 111 MiB (8%)\nAlignment                        : Split accross interleaves\nInterleave, duration             : 40 ms (1.00 video frame)\nInterleave, preload duration     : 500 ms\n","torrent":{"xt":"urn:btih:3ebc711e1d07941c9be9e6347711e68bb0d93aba","amp;dn":"Kung+Fu+Panda+2+TS+%28PSP%2C+iPod%2C+Zune%29","amp;tr":["udp%3A%2F%2Ftracker.openbittorrent.com%3A80","udp%3A%2F%2Fopen.demonii.com%3A1337","udp%3A%2F%2Ftracker.coppersurfer.tk%3A6969","udp%3A%2F%2Fexodus.desync.com%3A6969"],"infoHash":"3ebc711e1d07941c9be9e6347711e68bb0d93aba","infoHashBuffer":{"type":"Buffer","data":[62,188,113,30,29,7,148,28,155,233,230,52,119,17,230,139,176,217,58,186]},"announce":[],"urlList":[]}}